<svg xmlns="http://www.w3.org/2000/svg" width="244" height="74" viewBox="0 0 244 74" fill="none">
  <path d="M3.30859 74V18.9111H12.8205V24.42C15.9635 20.3911 20.5127 17.9244 25.8062 17.9244C36.7242 17.9244 44.6645 27.7089 44.6645 40.2889C44.6645 52.8689 36.7242 62.6533 25.8062 62.6533C20.5127 62.6533 15.9635 60.1866 12.8205 56.1577V74H3.30859ZM12.2415 40.2889C12.2415 48.5933 16.956 54.02 23.7384 54.02C30.1899 54.02 34.9045 48.1822 34.9045 40.2889C34.9045 32.3955 30.1899 26.5577 23.7384 26.5577C16.956 26.5577 12.2415 31.9844 12.2415 40.2889ZM49.6078 61.6666V18.9111H59.1197V26.8044C61.2702 22.4466 66.7292 17.9244 73.0153 17.9244V27.6266C63.2553 28.2844 59.1197 32.4777 59.1197 41.6866V61.6666H49.6078ZM72.4764 40.2889C72.4764 27.4622 81.8228 17.9244 93.9815 17.9244C106.14 17.9244 115.487 27.4622 115.487 40.2889C115.487 53.1155 106.14 62.6533 93.9815 62.6533C81.8228 62.6533 72.4764 53.1155 72.4764 40.2889ZM82.2364 40.2889C82.2364 48.7577 87.6954 53.8555 93.9815 53.8555C100.268 53.8555 105.727 48.7577 105.727 40.2889C105.727 31.9022 100.268 26.7222 93.9815 26.7222C87.6954 26.7222 82.2364 31.9022 82.2364 40.2889ZM154.638 62.0777L144.878 36.5066L135.118 62.0777H129.742L114.523 18.9111H124.862L132.72 44.6466L142.397 18.9111H147.773L157.202 44.6466L165.308 18.9111H175.233L160.015 62.0777H154.638ZM179.165 47.36V27.5444H172.135V18.9111H179.165V8.87996H188.677V18.9111H200.257V27.5444H188.677V46.5377C188.677 51.8 191.158 53.7733 195.625 53.7733C196.783 53.7733 198.272 53.5266 199.926 53.1977L200.67 61.8311C198.52 62.3244 196.535 62.6533 194.301 62.6533C185.286 62.6533 179.165 57.72 179.165 47.36ZM205.08 61.6666V1.64441H214.592V25.2422C216.66 21.2955 221.788 17.9244 227.661 17.9244C235.518 17.9244 243.128 24.2555 243.128 36.0955V61.6666H233.616V37.1644C233.616 29.5177 229.398 26.64 224.683 26.64C219.224 26.64 214.592 31.3266 214.592 39.3844V61.6666H205.08Z" fill="white"/>
</svg>