<svg xmlns="http://www.w3.org/2000/svg" width="auto" height="auto" viewBox="0 0 158 200" fill="#FFF">
  <path d="M86.6239 121.571C86.6239 121.571 144.372 126.13 142.852 63.8224C141.345 2.02971 87.5239 6.00356 86.635 6.07341C86.6074 6.07558 86.6442 6.07424 86.6165 6.07432C85.7199 6.0769 3.05798 6.5523 6.08093 94.2161C8.91291 176.342 76.3909 187.225 85.589 188.328C86.1638 188.397 86.6281 188.033 86.634 187.454C86.76 175.162 87.9915 51.665 86.6239 51.665M86.6239 121.571C86.6239 121.571 56.2301 121.571 56.2301 86.6178C56.2301 51.6649 85.0238 48.5513 86.6239 51.665M86.6239 121.571C86.6239 121.571 88.0632 51.665 86.6239 51.665" stroke="#C794FF" stroke-width="12"/>
  <path d="M151.971 66.8619C153.479 128.707 96.5958 124.674 95.7515 124.611C95.7253 124.609 95.7503 124.61 95.724 124.61C94.8895 124.603 65.3483 124.116 65.3483 89.6572C65.3483 54.7044 91.1817 47.1061 95.742 54.7044C100.302 62.3027 100.302 182.358 95.742 191.476C91.1817 200.594 18.2385 185.397 15.1991 97.2556C12.1761 9.59173 94.838 9.11633 95.7347 9.11375C95.7624 9.11367 95.7255 9.11501 95.7532 9.11284C96.6421 9.04299 150.463 5.06914 151.971 66.8619Z" stroke="black" stroke-width="12"/>
</svg>