<svg width="auto" height="auto" viewBox="0 0 94 93" fill="none" xmlns="http://www.w3.org/2000/svg" >
<path d="M16 77.5C13.8688 77.5 12.0436 76.7405 10.5246 75.2215C9.00563 73.7025 8.24742 71.8787 8.25001 69.75V23.25C8.25001 21.1188 9.00951 19.2936 10.5285 17.7746C12.0475 16.2556 13.8713 15.4974 16 15.5H78C80.1313 15.5 81.9564 16.2595 83.4754 17.7785C84.9944 19.2975 85.7526 21.1213 85.75 23.25V69.75C85.75 71.8813 84.9905 73.7064 83.4715 75.2254C81.9525 76.7444 80.1287 77.5026 78 77.5H16ZM47 50.375L16 31V69.75H78V31L47 50.375ZM47 42.625L78 23.25H16L47 42.625ZM16 31V23.25V69.75V31Z" fill="#94B234"/>
<path d="M47 42.625L78 23.25H16L47 42.625Z" fill="#94B234"/>
<path d="M47 50.375L16 31V69.75H78V31L47 50.375Z" fill="#C7E173"/>
</svg>
